<?xml version="1.0" encoding="UTF-8" standalone="no"?>
<!-- Created with Inkscape (http://www.inkscape.org/) -->

<svg
   xmlns:dc="http://purl.org/dc/elements/1.1/"
   xmlns:cc="http://creativecommons.org/ns#"
   xmlns:rdf="http://www.w3.org/1999/02/22-rdf-syntax-ns#"
   xmlns:svg="http://www.w3.org/2000/svg"
   xmlns="http://www.w3.org/2000/svg"
   xmlns:sodipodi="http://sodipodi.sourceforge.net/DTD/sodipodi-0.dtd"
   xmlns:inkscape="http://www.inkscape.org/namespaces/inkscape"
   version="1.1"
   id="svg2"
   width="380.20624"
   height="309.302"
   viewBox="0 0 380.20624 309.302"
   sodipodi:docname="Hindustan Times HT Icon 2009.svg"
   inkscape:version="0.92.4 (5da689c313, 2019-01-14)">
  <metadata
     id="metadata8">
    <rdf:RDF>
      <cc:Work
         rdf:about="">
        <dc:format>image/svg+xml</dc:format>
        <dc:type
           rdf:resource="http://purl.org/dc/dcmitype/StillImage" />
        <dc:title></dc:title>
      </cc:Work>
    </rdf:RDF>
  </metadata>
  <defs
     id="defs6" />
  <sodipodi:namedview
     pagecolor="#ffffff"
     bordercolor="#666666"
     borderopacity="1"
     objecttolerance="10"
     gridtolerance="10"
     guidetolerance="10"
     inkscape:pageopacity="0"
     inkscape:pageshadow="2"
     inkscape:window-width="640"
     inkscape:window-height="480"
     id="namedview4"
     showgrid="false"
     inkscape:zoom="0.52398524"
     inkscape:cx="35"
     inkscape:cy="191.27879"
     inkscape:window-x="0"
     inkscape:window-y="0"
     inkscape:window-maximized="0"
     inkscape:current-layer="svg2" />
  <g
     id="g12"
     transform="translate(-89,-32.976785)">
    <path
       style="fill:#9ddaeb"
       d="M 89.416646,342.08333 C 89.187491,341.85417 89,272.21144 89,187.32173 V 32.976785 l 39.25,0.261608 39.25,0.261607 0.25816,57.835333 0.25816,57.835337 5.13395,-4.61587 C 189.29681,130.03768 212.88223,123.19204 243,124.281 c 27.59464,0.99774 43.31311,6.7309 56.80483,20.719 9.77685,10.13656 16.20239,26.85492 18.25616,47.5 0.58666,5.89731 0.88079,38.51367 0.7169,79.5 l -0.27789,69.5 -39.21737,0.26158 -39.21737,0.26158 -0.28263,-69.26158 L 239.5,203.5 237.20723,197.82772 C 234.71188,191.65426 229.64898,186.3619 223.35332,183.34595 220.26813,181.86798 217.10788,181.5 207.5,181.5 c -11.39769,0 -12.33682,0.15908 -18.71063,3.16943 -8.07957,3.81599 -14.15318,9.74681 -17.67788,17.26228 L 168.5,207.5 l -0.27708,67.25 c -0.15239,36.9875 -0.60239,67.25543 -1,67.26207 -18.78322,0.31366 -77.510103,0.36745 -77.806274,0.0713 z m 300.862644,-2.23136 c -7.57967,-2.34818 -18.74033,-9.26413 -21.99283,-13.62835 -1.52629,-2.04799 -3.02274,-3.94862 -3.32542,-4.22362 -2.78168,-2.52722 -8.30727,-16.38632 -10.16679,-25.5 -0.56668,-2.77735 -1.30336,-29.22689 -1.65722,-59.5 L 352.5,182.5 336.75,182.22461 c -14.10414,-0.24662 -15.75787,-0.45562 -15.82534,-2 -0.075,-1.71789 -0.0478,-44.33932 0.0329,-51.47461 L 321,125 h 14.41821 c 7.93002,0 15.13002,-0.27314 16,-0.60699 C 352.79663,123.86406 353,120.85304 353,100.97338 V 78.160733 l 4.75,-1.504534 c 4.69939,-1.488503 21.5069,-6.500212 44.75,-13.343672 6.6,-1.943237 15.52379,-4.612642 19.83065,-5.932013 4.30686,-1.319371 8.24436,-2.143171 8.75,-1.830668 C 431.61056,55.87735 432,70.495441 432,90.059017 c 0,18.667543 0.1125,34.016783 0.25,34.109413 0.1375,0.0926 8.35,0.43014 18.25,0.75 l 18,0.58157 0.5,3.5 c 0.275,1.925 0.275,14.525 0,28 l -0.5,24.5 -18,0.5 -18,0.5 v 46 46 l 2.37058,3.78696 c 3.42177,5.46621 7.25768,6.71304 20.6529,6.71304 h 11.27922 l 0.70791,11.32973 c 0.71236,11.40103 0.27845,43.21454 -0.60142,44.09441 -0.25986,0.25986 -16.41096,0.60824 -35.89134,0.77417 -30.65642,0.26112 -36.13416,0.0801 -40.73856,-1.34634 z"
       id="path26"
       inkscape:connector-curvature="0" />
    <path
       style="fill:#a5a5a5"
       d="M 89,187.5 V 32.976785 l 39.25,0.261608 39.25,0.261607 0.25817,57.858981 0.25817,57.858979 3.83505,-3.35898 c 6.36166,-5.57195 7.62761,-6.47154 14.26678,-10.13798 15.42781,-8.51994 28.39667,-11.25246 52.88183,-11.14217 14.0612,0.0633 19.31259,0.49565 26.72425,2.20003 24.47451,5.62816 40.61039,20.04589 47.80511,42.71483 C 318.23595,184.32307 318.5,189.55593 318.5,268 v 73.5 h -39 -39 l -0.5,-70 -0.5,-70 -2.3578,-4.5 c -3.03519,-5.79285 -7.60602,-10.6151 -12.6422,-13.33763 -3.51554,-1.90047 -5.57449,-2.16237 -17,-2.16237 -12.12653,0 -13.37205,0.18289 -18.53727,2.72198 -13.11079,6.44494 -19.58842,16.12448 -21.10321,31.53458 -0.47271,4.80889 -0.79836,35.06844 -0.72367,67.24344 l 0.1358,58.5 -39.13582,0.26161 L 89,342.02321 Z M 396.27589,339.81344 C 383.0715,338.3569 368.59327,328.06597 362.77297,316 358.84342,307.85371 358.0451,305.42092 355.92772,295.13992 354.16773,286.59427 354,281.22135 354,233.38992 V 181 h -16 -16 v -26.5 c 0,-14.575 -0.1125,-26.8375 -0.25,-27.25 -0.1375,-0.4125 7.05438,-0.87361 15.98196,-1.02468 l 16.23196,-0.27469 0.26804,-23.64254 0.26804,-23.642537 2.5,-0.74645 c 1.375,-0.410548 4.975,-1.443312 8,-2.295033 3.025,-0.85172 10.675,-3.108928 17,-5.016016 13.68027,-4.124819 26.54279,-7.930429 37.5,-11.095054 4.4,-1.270793 8.7875,-2.629233 9.75,-3.018755 1.64688,-0.666492 1.75,1.360406 1.75,34.398766 V 126 H 449.5 468 V 153.5 181 H 449.46255 430.9251 l 0.28745,46.75 c 0.26776,43.54776 0.4162,46.98639 2.16712,50.2011 3.80978,6.99479 6.61471,8.04891 21.41738,8.04887 l 11.70295,-4e-5 -0.20064,27.10342 -0.20063,27.10341 -31.79937,0.14662 c -17.48965,0.0806 -34.60021,-0.16233 -38.02347,-0.53994 z"
       id="path24"
       inkscape:connector-curvature="0" />
    <path
       style="fill:#018fc8"
       d="M 89.416618,341.08333 C 89.187478,340.85417 89,271.67705 89,187.35641 V 34.046156 l 38.58408,-0.273078 c 21.22124,-0.150193 38.77124,-0.08558 39,0.143589 C 166.81283,34.145833 167,60.358333 167,92.166667 167,123.975 167.37156,150 167.82569,150 c 0.45412,0 1.91662,-1.17372 3.25,-2.60827 7.02466,-7.55769 21.55195,-15.43747 35.92431,-19.4858 7.79054,-2.19439 10.33625,-2.39472 30.5,-2.40008 19.93897,-0.005 22.79199,0.21181 30.45396,2.31752 11.90024,3.27049 20.08006,7.49022 29.38672,15.15974 3.78563,3.1197 10.67675,13.90931 13.69025,21.43517 6.47738,16.17648 6.46907,16.04755 6.46907,100.3729 v 76.29118 l -38,0.0655 -38,0.0655 -0.53458,-68.35664 c -0.35316,-45.15971 -0.90178,-69.38436 -1.61666,-71.38511 -5.18383,-14.5082 -13.42945,-20.46393 -29.44704,-21.26932 -19.19762,-0.96529 -33.53083,7.4598 -40.48604,23.79779 -1.80486,4.23969 -1.9446,8.34005 -2.41568,70.88297 l -0.5,66.38297 -38.33338,0.11703 c -21.08336,0.0644 -38.520862,-0.0705 -38.750002,-0.29964 z m 300.070322,-2.8821 c -15.26163,-5.27735 -25.23366,-15.60557 -30.31903,-31.40199 -4.38583,-13.62349 -4.4498,-14.55404 -4.88399,-71.04924 L 353.86314,181 H 337.93157 322 v -26.88337 -26.88337 l 2.25,-0.60297 c 1.2375,-0.33164 8.4375,-0.60913 16,-0.61664 L 354,126 V 102.54235 79.08469 l 6.75,-1.984448 c 3.7125,-1.091446 11.475,-3.399167 17.25,-5.128268 5.775,-1.729101 14.1,-4.175442 18.5,-5.436313 4.4,-1.26087 13.31364,-3.922205 19.80808,-5.914076 C 422.80253,58.629713 428.76503,57 429.55808,57 430.78611,57 431,62.11765 431,91.5 V 126 l 17.25,0.0153 c 9.4875,0.008 17.82013,0.3772 18.51696,0.8195 0.98163,0.62308 1.20683,6.75634 1,27.23469 L 467.5,180.5 l -18.2956,0.27274 -18.29561,0.27273 0.29561,47.22727 c 0.2841,45.3905 0.37471,47.36338 2.32962,50.72726 3.31,5.69563 7.16114,6.99665 20.71598,6.99845 L 466,286 v 27 27 l -35.75,-0.0326 c -31.26732,-0.0285 -36.37859,-0.25 -40.76306,-1.76612 z"
       id="path22"
       inkscape:connector-curvature="0" />
    <path
       style="fill:#1689b2"
       d="M 89.416618,341.08333 C 89.187478,340.85417 89,271.67705 89,187.35641 V 34.046156 l 38.58408,-0.273078 c 21.22124,-0.150193 38.77124,-0.08558 39,0.143589 C 166.81283,34.145833 167,60.358333 167,92.166667 167,123.975 167.37156,150 167.82569,150 c 0.45412,0 1.91662,-1.17372 3.25,-2.60827 7.02466,-7.55769 21.55195,-15.43747 35.92431,-19.4858 7.79054,-2.19439 10.33625,-2.39472 30.5,-2.40008 19.93897,-0.005 22.79199,0.21181 30.45396,2.31752 11.90024,3.27049 20.08006,7.49022 29.38672,15.15974 3.78563,3.1197 10.67675,13.90931 13.69025,21.43517 6.47738,16.17648 6.46907,16.04755 6.46907,100.3729 v 76.29118 l -38,0.0655 -38,0.0655 -0.53458,-68.35664 c -0.35316,-45.15971 -0.90178,-69.38436 -1.61666,-71.38511 -5.18383,-14.5082 -13.42945,-20.46393 -29.44704,-21.26932 -19.19762,-0.96529 -33.53083,7.4598 -40.48604,23.79779 -1.80486,4.23969 -1.9446,8.34005 -2.41568,70.88297 l -0.5,66.38297 -38.33338,0.11703 c -21.08336,0.0644 -38.520862,-0.0705 -38.750002,-0.29964 z m 300.070322,-2.8821 c -15.26163,-5.27735 -25.23366,-15.60557 -30.31903,-31.40199 -4.38583,-13.62349 -4.4498,-14.55404 -4.88399,-71.04924 L 353.86314,181 H 337.93157 322 v -26.88337 -26.88337 l 2.25,-0.60297 c 1.2375,-0.33164 8.4375,-0.60913 16,-0.61664 L 354,126 V 102.54235 79.08469 l 6.75,-1.984448 c 3.7125,-1.091446 11.475,-3.399167 17.25,-5.128268 5.775,-1.729101 14.1,-4.175442 18.5,-5.436313 4.4,-1.26087 13.31364,-3.922205 19.80808,-5.914076 C 422.80253,58.629713 428.76503,57 429.55808,57 430.78611,57 431,62.11765 431,91.5 V 126 l 17.25,0.0153 c 9.4875,0.008 17.82013,0.3772 18.51696,0.8195 0.98163,0.62308 1.20683,6.75634 1,27.23469 L 467.5,180.5 l -18.2956,0.27274 -18.29561,0.27273 0.29561,47.22727 c 0.2841,45.3905 0.37471,47.36338 2.32962,50.72726 3.31,5.69563 7.16114,6.99665 20.71598,6.99845 L 466,286 v 27 27 l -35.75,-0.0326 c -31.26732,-0.0285 -36.37859,-0.25 -40.76306,-1.76612 z m 70.30118,-1.65469 3.0219,-0.66372 0.66108,-11.19141 C 463.83469,318.53613 463.76494,307.875 463.31609,301 L 462.5,288.5 452,288.33646 c -13.23392,-0.20612 -18.96014,-2.37785 -22.00458,-8.34544 C 428.08475,276.2458 428,274.07001 428,228.76234 c 0,-41.23943 0.20027,-47.60326 1.55917,-49.54335 1.23295,-1.76028 1.95008,-2.01681 3.42756,-1.22609 1.02761,0.54996 2.47119,0.76861 3.20794,0.48589 2.51613,-0.96553 19.29799,-1.14868 22.62354,-0.2469 5.83006,1.58091 6.18179,0.57363 6.18179,-17.70346 0,-8.92467 -0.29103,-19.66957 -0.64674,-23.87755 L 463.70653,129 h -15.81431 c -14.98072,0 -15.92178,-0.11536 -17.85326,-2.18856 C 428.07693,124.70546 428,123.44023 428,93.280054 c 0,-34.648113 0.0295,-34.500829 -6.17309,-30.836876 -1.7332,1.023822 -3.90424,1.503246 -5.26302,1.162214 -1.45079,-0.364127 -3.98781,0.310095 -6.80668,1.808906 -2.47161,1.314167 -7.8156,3.178513 -11.87552,4.14299 -4.05993,0.964477 -9.05126,2.583647 -11.09185,3.598154 C 384.74925,74.169949 381.28831,75 379.09886,75 c -2.18946,0 -4.22741,0.398987 -4.5288,0.886637 -0.30138,0.48765 -2.24044,1.185594 -4.30901,1.550985 -6.7421,1.190919 -12.12262,3.874705 -12.74578,6.357547 -0.3189,1.270594 -0.53061,10.862535 -0.47048,21.315421 0.0913,15.86663 -0.15492,19.40855 -1.49079,21.44733 -1.82994,2.79285 -1.38706,2.72566 -16.22181,2.46089 -14.85396,-0.26511 -14.13382,-1.46263 -14.44578,24.02203 -0.18554,15.15654 0.0806,20.26342 1.18634,22.76138 0.9961,2.25035 1.87768,3.02294 2.9264,2.56461 0.82547,-0.36076 2.40085,-0.61154 3.50085,-0.55727 1.1,0.0543 6.14047,0.0973 11.20105,0.0956 14.61044,-0.005 13.29753,-5.41621 13.3065,54.84485 0.008,56.98955 0.32886,60.73539 6.64138,77.6511 2.43824,6.53378 14.64686,20.5989 17.87998,20.5989 0.36429,0 1.98793,0.9439 3.60808,2.09754 1.62015,1.15365 4.05004,2.39115 5.39976,2.75 3.36944,0.89584 65.49989,1.52296 69.25137,0.699 z"
       id="path20"
       inkscape:connector-curvature="0" />
    <path
       style="fill:#177ca1"
       d="M 89.416618,341.08333 C 89.187478,340.85417 89,271.67705 89,187.35641 V 34.046156 l 38.58408,-0.273078 c 21.22124,-0.150193 38.77124,-0.08558 39,0.143589 C 166.81283,34.145833 167,60.358333 167,92.166667 167,123.975 167.37156,150 167.82569,150 c 0.45412,0 1.91662,-1.17372 3.25,-2.60827 7.02466,-7.55769 21.55195,-15.43747 35.92431,-19.4858 7.79054,-2.19439 10.33625,-2.39472 30.5,-2.40008 19.93897,-0.005 22.79199,0.21181 30.45396,2.31752 11.90024,3.27049 20.08006,7.49022 29.38672,15.15974 3.78563,3.1197 10.67675,13.90931 13.69025,21.43517 6.47738,16.17648 6.46907,16.04755 6.46907,100.3729 v 76.29118 l -38,0.0655 -38,0.0655 -0.53458,-68.35664 c -0.35316,-45.15971 -0.90178,-69.38436 -1.61666,-71.38511 -5.18383,-14.5082 -13.42945,-20.46393 -29.44704,-21.26932 -19.19762,-0.96529 -33.53083,7.4598 -40.48604,23.79779 -1.80486,4.23969 -1.9446,8.34005 -2.41568,70.88297 l -0.5,66.38297 -38.33338,0.11703 c -21.08336,0.0644 -38.520862,-0.0705 -38.750002,-0.29964 z M 395,339 c -1.2819,-0.82843 -1.24555,-0.9716 0.25,-0.98469 0.9625,-0.008 1.75,0.43469 1.75,0.98469 0,1.21961 -0.11279,1.21961 -2,0 z m 67,0 c 0,-0.55 0.45,-1 1,-1 0.55,0 1.03163,-0.7875 1.07029,-1.75 0.0601,-1.49644 0.19481,-1.46022 0.92971,0.25 1.30474,3.03629 1.17225,3.5 -1,3.5 -1.1,0 -2,-0.45 -2,-1 z m -28.25,-0.66228 c 0.6875,-0.27741 1.8125,-0.27741 2.5,0 0.6875,0.27741 0.125,0.50439 -1.25,0.50439 -1.375,0 -1.9375,-0.22698 -1.25,-0.50439 z m -51.72239,-3.87049 c -3.55982,-1.91804 -8.36922,-5.34893 -10.68757,-7.62422 -5.5458,-5.44279 -12.29756,-19.0445 -13.82101,-27.84301 -0.78703,-4.54539 0.96282,-1.89098 1.97767,3 1.51256,7.28968 10.50661,23.88398 13.0033,23.99149 0.55,0.0237 1.95897,1.0556 3.13105,2.29315 1.17208,1.23755 3.42208,2.91655 5,3.73113 1.57792,0.81457 3.09395,1.7258 3.36895,2.02494 0.275,0.29915 2.075,1.30212 4,2.22882 1.925,0.92671 2.825,1.68496 2,1.68499 -0.825,3e-5 -4.41258,-1.56925 -7.97239,-3.48729 z M 464.40249,318 c 0,-8.525 0.15337,-12.0125 0.34082,-7.75 0.18745,4.2625 0.18745,11.2375 0,15.5 -0.18745,4.2625 -0.34082,0.775 -0.34082,-7.75 z M 464.07895,294.25 464,288 l -9.75,-0.0703 c -5.3625,-0.0387 -10.52285,-0.37615 -11.46744,-0.75 -0.94459,-0.37384 3.80056,-0.67971 10.54478,-0.67971 h 12.26222 l -0.36738,6 c -0.51177,8.35837 -1.04936,9.18129 -1.14323,1.75 z m -107.76993,-0.5 c -0.44496,-0.6875 -0.83573,-26.225 -0.86837,-56.75 l -0.0593,-55.5 0.57752,55 c 0.31764,30.25 0.95499,55.7875 1.41634,56.75 0.95946,2.0017 0.15113,2.38079 -1.06614,0.5 z m 77.84637,-10.65396 c -0.70768,-0.43737 -2.04342,-2.1004 -2.96831,-3.69563 -1.49876,-2.58501 -1.71137,-7.9842 -1.95513,-49.65041 -0.18319,-31.31302 0.0636,-46.75 0.74727,-46.75 0.67937,0 1.02078,15.16818 1.02078,45.35078 0,46.07862 0.32238,50.60212 3.80485,53.38889 1.7926,1.43448 1.26382,2.53884 -0.64946,1.35637 z M 322.23389,154.01136 322.03593,127 337.76796,127.20805 353.5,127.4161 339,127.95805 324.5,128.5 l -0.20099,25.98366 c -0.11055,14.29102 -0.57588,26.10863 -1.03407,26.26136 -0.4582,0.15273 -0.92217,-11.87742 -1.03105,-26.73366 z m 142.78578,26.00079 c -1.24141,-0.76723 -1.19563,-1.0074 0.30148,-1.58189 2.08649,-0.80066 3.44889,0.1997 2.10382,1.54477 -0.56802,0.56802 -1.52247,0.58275 -2.4053,0.0371 z M 330.75,179.33772 c 0.6875,-0.27741 1.8125,-0.27741 2.5,0 0.6875,0.27741 0.125,0.50439 -1.25,0.50439 -1.375,0 -1.9375,-0.22698 -1.25,-0.50439 z m 13.52083,0.0581 c 0.33229,-0.33229 1.19479,-0.36781 1.91667,-0.0789 0.79773,0.31922 0.56078,0.55618 -0.60417,0.60416 -1.05416,0.0434 -1.64479,-0.19292 -1.3125,-0.52522 z M 466,176 c 0,-0.55 0.19844,-1 0.44098,-1 0.24254,0 0.7191,0.45 1.05902,1 0.33992,0.55 0.14148,1 -0.44098,1 C 466.47656,177 466,176.55 466,176 Z m 0.079,-9.41667 c -0.0434,-1.05416 0.19293,-1.64479 0.52522,-1.3125 0.33229,0.3323 0.36781,1.19479 0.0789,1.91667 -0.31922,0.79773 -0.55618,0.56078 -0.60416,-0.60417 z M 466,134.21636 c 0,-3.81835 -0.44413,-5.37566 -1.75,-6.13626 -1.50759,-0.87809 -1.38305,-1.02349 0.89912,-1.04969 2.60264,-0.0299 2.64222,0.0689 2.25592,5.63033 -0.50269,7.23725 -1.40504,8.2363 -1.40504,1.55562 z m -26.25,-6.95676 c 3.4375,-0.19527 9.0625,-0.19527 12.5,0 3.4375,0.19527 0.625,0.35504 -6.25,0.35504 -6.875,0 -9.6875,-0.15977 -6.25,-0.35504 z M 354.97312,102.6292 354.5,79.758409 l 2.3151,-0.879204 c 3.50171,-1.329845 6.24761,-0.997924 3.1849,0.384987 -1.375,0.620857 -2.725,1.301826 -3,1.513266 -0.275,0.211439 -0.73709,10.360509 -1.02688,22.553492 L 355.44625,125.5 Z M 429,92.083333 c 0,-24.596158 -0.2867,-32.033 -1.25,-32.423869 -0.94068,-0.38169 -0.87881,-0.769712 0.25,-1.56802 0.825,-0.58345 1.8375,-1.067709 2.25,-1.076131 C 430.6625,57.006891 431,72.075 431,90.5 c 0,21.66667 -0.35323,33.5 -1,33.5 -0.64578,0 -1,-11.30556 -1,-31.916667 z M 365.97084,76.510272 c 3.40013,-1.566852 9.05419,-3.213936 14.02916,-4.086833 1.708,-0.299681 1.3912,0.01486 -1,0.99288 -1.925,0.787339 -4.53906,1.46576 -5.80902,1.507603 -1.26996,0.04184 -2.10043,0.413578 -1.84549,0.826078 0.25494,0.4125 -0.506,0.810535 -1.69098,0.884522 -1.18498,0.07399 -3.27951,0.436171 -4.65451,0.804853 -1.43943,0.385957 -1.02757,-0.0082 0.97084,-0.929103 z M 386,70.528783 c 0,-0.48117 11.08202,-3.855072 16.5,-5.023394 1.99633,-0.430485 2.66544,-0.313078 2,0.350932 -0.55,0.548816 -4.67498,1.930659 -9.16661,3.070763 C 386.56631,71.152414 386,71.249599 386,70.528783 Z m 26.27083,-8.13295 c 0.33229,-0.332291 1.19479,-0.367818 1.91667,-0.07895 0.79773,0.319226 0.56078,0.556183 -0.60417,0.604167 -1.05416,0.04342 -1.64479,-0.192928 -1.3125,-0.52522 z M 419,60.930247 c 0,-0.809659 5.87403,-2.389548 6.51208,-1.751499 0.20299,0.202989 -1.17919,0.853667 -3.0715,1.445953 C 420.54826,61.216987 419,61.354482 419,60.930247 Z"
       id="path18"
       inkscape:connector-curvature="0" />
    <path
       style="fill:#5b5b5b"
       d="M 89.416618,341.08333 C 89.187478,340.85417 89,271.67705 89,187.35641 V 34.046156 l 38.58408,-0.273078 c 21.22124,-0.150193 38.77124,-0.08558 39,0.143589 C 166.81283,34.145833 167,60.358333 167,92.166667 167,123.975 167.37156,150 167.82569,150 c 0.45412,0 1.91662,-1.17372 3.25,-2.60827 7.02466,-7.55769 21.55195,-15.43747 35.92431,-19.4858 7.79054,-2.19439 10.33625,-2.39472 30.5,-2.40008 19.93897,-0.005 22.79199,0.21181 30.45396,2.31752 11.90024,3.27049 20.08006,7.49022 29.38672,15.15974 3.78563,3.1197 10.67675,13.90931 13.69025,21.43517 6.47738,16.17648 6.46907,16.04755 6.46907,100.3729 v 76.29118 l -38,0.0655 -38,0.0655 -0.53458,-68.35664 c -0.35316,-45.15971 -0.90178,-69.38436 -1.61666,-71.38511 -5.18383,-14.5082 -13.42945,-20.46393 -29.44704,-21.26932 -19.19762,-0.96529 -33.53083,7.4598 -40.48604,23.79779 -1.80486,4.23969 -1.9446,8.34005 -2.41568,70.88297 l -0.5,66.38297 -38.33338,0.11703 c -21.08336,0.0644 -38.520862,-0.0705 -38.750002,-0.29964 z"
       id="path16"
       inkscape:connector-curvature="0" />
    <path
       style="fill:#000000"
       d="M 90,187.51188 V 34 h 37.88337 37.88337 l 0.63755,2.25 c 0.35065,1.2375 0.52362,27.30799 0.38438,57.934422 -0.13924,30.626428 0.10713,56.044708 0.54748,56.485058 0.44035,0.44035 1.55736,-0.12802 2.48224,-1.26304 0.92489,-1.13502 3.70661,-3.65037 6.18161,-5.58966 16.673,-13.06418 41.35749,-19.85749 67.35968,-18.53776 37.97441,1.92737 58.99697,15.21812 68.71993,43.44568 C 316.62743,181.92784 317,189.40667 317,267.49342 V 341 H 279.5 242 l -0.0198,-63.25 c -0.0109,-34.7875 -0.44629,-66.19727 -0.96754,-69.79949 -1.85125,-12.79349 -7.1259,-20.82266 -16.76402,-25.51848 -5.14146,-2.50498 -6.85764,-2.80773 -16.24863,-2.86642 -8.93153,-0.0558 -11.39627,0.29975 -16.5,2.38026 -13.6369,5.559 -22.00444,15.34041 -24.42674,28.55413 -0.72681,3.96478 -1.08522,27.03066 -1.05661,68 l 0.0433,62 -38.02998,0.26188 L 90,341.02377 Z"
       id="path14"
       inkscape:connector-curvature="0" />
  </g>
</svg>
